<?xml version="1.0" standalone="no"?>
<!DOCTYPE svg PUBLIC "-//W3C//DTD SVG 20010904//EN"
 "http://www.w3.org/TR/2001/REC-SVG-20010904/DTD/svg10.dtd">
<svg version="1.0" xmlns="http://www.w3.org/2000/svg"
 width="452.000000pt" height="640.000000pt" viewBox="0 0 452.000000 640.000000"
 preserveAspectRatio="xMidYMid meet">
<metadata>
Created by potrace 1.15, written by Peter Selinger 2001-2017
</metadata>
<g transform="translate(0.000000,640.000000) scale(0.100000,-0.100000)"
fill="#000000" stroke="none">
<path d="M2240 3994 c0 -3 10 -14 23 -25 18 -15 19 -18 5 -19 -10 0 -25 -11
-33 -24 -12 -17 -29 -26 -63 -31 -53 -8 -135 -46 -170 -78 -44 -41 -102 -140
-123 -209 -18 -58 -20 -84 -15 -146 4 -42 16 -98 28 -124 l20 -47 -65 -68
c-36 -37 -82 -89 -102 -116 -47 -62 -96 -167 -97 -209 -1 -23 -11 -45 -34 -71
-38 -41 -43 -65 -16 -74 9 -3 25 -13 34 -20 9 -8 21 -12 27 -9 6 4 18 2 28 -3
10 -5 26 -12 36 -15 29 -9 19 -24 -35 -49 -30 -14 -80 -52 -116 -87 l-63 -63
-37 12 c-76 25 -162 -40 -148 -111 9 -47 73 -123 126 -152 55 -30 109 -33 150
-10 31 19 80 89 80 116 0 22 53 82 104 119 l38 28 47 -38 c59 -49 109 -74 192
-95 80 -20 126 -20 207 -1 76 18 127 43 171 84 18 17 37 28 42 25 5 -3 33 -56
62 -118 30 -63 65 -120 78 -129 74 -53 212 16 254 127 22 57 14 104 -24 145
-25 27 -36 31 -79 31 -39 0 -57 -6 -80 -25 l-30 -25 -17 28 c-10 15 -29 39
-42 53 -21 23 -23 30 -13 48 6 12 24 24 41 28 16 3 32 10 35 14 3 5 9 7 14 4
10 -6 71 22 82 38 10 17 -2 34 -32 47 -23 10 -29 20 -35 58 -17 114 -82 263
-162 374 l-34 47 34 53 c61 95 80 164 75 270 -4 95 -27 160 -79 226 -26 33
-103 90 -145 108 -55 23 -53 8 2 -18 75 -35 157 -121 184 -193 29 -78 29 -201
0 -278 -40 -105 -81 -159 -152 -200 -90 -52 -173 -66 -254 -42 -118 34 -237
129 -265 211 -7 21 -13 80 -14 129 0 73 5 102 25 153 60 151 162 228 312 235
l78 3 -22 -23 c-12 -13 -31 -23 -42 -23 -15 0 -17 -3 -9 -11 14 -14 70 17 79
43 3 10 9 18 14 18 12 0 -30 82 -49 97 -17 13 -31 16 -31 7z"/>
</g>
</svg>
