<?xml version="1.0" standalone="no"?>
<!DOCTYPE svg PUBLIC "-//W3C//DTD SVG 20010904//EN"
 "http://www.w3.org/TR/2001/REC-SVG-20010904/DTD/svg10.dtd">
<svg version="1.0" xmlns="http://www.w3.org/2000/svg"
 width="148.000000pt" height="165.000000pt" viewBox="0 0 148.000000 165.000000"
 preserveAspectRatio="xMidYMid meet">

<g transform="translate(0.000000,165.000000) scale(0.100000,-0.100000)"
fill="#000000" stroke="none">
<path d="M706 1539 c-140 -23 -317 -162 -389 -304 -77 -154 -107 -319 -107
-593 0 -191 -5 -216 -46 -253 -11 -10 -28 -19 -39 -22 -15 -3 -13 -5 8 -6 35
-1 79 21 105 54 l20 25 32 -57 c48 -85 131 -161 230 -211 122 -61 246 -73 132
-12 l-37 19 33 1 c72 1 133 53 131 112 0 19 -3 17 -13 -11 -24 -66 -83 -79
-173 -37 -173 81 -253 313 -192 557 25 98 86 223 131 265 30 29 30 29 -6 -22
-77 -109 -113 -234 -103 -354 9 -111 22 -109 22 3 0 95 2 107 32 168 36 72
105 144 172 179 23 11 81 35 129 52 48 16 103 39 123 49 39 20 84 67 94 99 10
30 22 24 35 -16 16 -48 7 -110 -22 -148 -16 -21 -25 -50 -28 -91 -5 -55 -7
-60 -27 -58 -17 2 -23 -2 -23 -17 0 -18 3 -19 22 -9 92 49 219 15 263 -72 20
-37 19 -112 -1 -152 -9 -18 -31 -54 -50 -82 -30 -46 -32 -54 -24 -95 15 -77
-6 -137 -79 -225 -23 -27 -41 -53 -41 -58 0 -17 64 27 130 90 137 129 218 291
207 412 -7 78 -36 130 -122 221 -81 85 -91 108 -100 230 -10 135 -15 146 -107
236 -99 97 -134 119 -212 133 -33 6 -60 10 -60 10 -1 -1 -23 -5 -50 -10z"/>
<path d="M659 850 c-20 -66 2 -123 76 -195 81 -79 125 -141 125 -177 0 -15 5
-28 10 -28 6 0 10 4 10 8 0 5 17 21 37 35 36 26 37 27 12 27 -45 0 -71 37 -82
121 -4 30 -1 41 19 58 21 18 23 26 18 65 -5 35 -2 53 14 80 12 20 17 36 13 36
-5 0 -11 -6 -14 -14 -4 -9 -14 -12 -28 -9 -12 4 -20 2 -17 -3 3 -5 2 -19 -3
-31 -14 -38 -55 -30 -107 22 -24 25 -51 45 -58 45 -7 0 -19 -18 -25 -40z"/>
</g>
</svg>
