<?xml version="1.0" standalone="no"?>
<!DOCTYPE svg PUBLIC "-//W3C//DTD SVG 20010904//EN"
 "http://www.w3.org/TR/2001/REC-SVG-20010904/DTD/svg10.dtd">
<svg version="1.0" xmlns="http://www.w3.org/2000/svg"
 width="148.000000pt" height="165.000000pt" viewBox="0 0 148.000000 165.000000"
 preserveAspectRatio="xMidYMid meet">

<g transform="translate(0.000000,165.000000) scale(0.100000,-0.100000)"
fill="#000000" stroke="none">
<path d="M677 1536 c-155 -45 -300 -171 -373 -325 -70 -146 -94 -292 -94 -571
0 -168 -2 -188 -20 -218 -11 -18 -34 -39 -51 -46 -18 -7 -27 -16 -22 -19 20
-13 82 15 112 48 l31 35 26 -52 c41 -82 134 -167 235 -217 123 -61 245 -71
131 -11 l-37 19 33 1 c18 0 48 6 67 14 52 22 82 97 54 136 -8 12 -9 9 -5 -13
7 -31 -15 -81 -39 -91 -88 -33 -241 68 -300 197 -48 106 -56 252 -20 392 18
71 74 188 110 230 19 23 17 16 -10 -29 -65 -111 -79 -159 -79 -281 -1 -67 4
-118 11 -130 9 -16 10 -3 6 61 -9 124 36 236 127 318 49 44 88 64 220 111 124
44 174 76 198 127 9 21 20 38 24 38 9 0 28 -67 28 -99 0 -13 -15 -52 -34 -85
-29 -52 -34 -69 -29 -104 5 -40 4 -42 -19 -42 -29 0 -38 -7 -32 -25 5 -11 12
-11 39 1 121 50 265 -27 265 -143 0 -52 -16 -93 -63 -161 -33 -49 -34 -53 -29
-120 6 -84 -12 -127 -84 -212 -53 -62 -45 -75 18 -32 93 65 202 195 251 299
28 59 32 79 32 153 0 109 -20 152 -119 252 -81 83 -89 102 -101 253 -4 44 -13
94 -20 110 -19 45 -163 182 -222 211 -63 31 -149 39 -216 20z"/>
<path d="M660 864 c-28 -74 -3 -133 105 -245 70 -72 86 -95 91 -128 4 -23 9
-41 11 -41 3 0 21 13 40 30 18 16 38 30 43 30 6 0 10 4 10 9 0 5 -15 9 -34 9
-43 0 -56 8 -56 32 0 10 -4 22 -10 25 -5 3 -8 20 -6 38 2 18 -1 35 -8 40 -7 5
-2 14 17 28 25 19 27 25 22 67 -5 36 -1 56 13 85 11 20 16 37 12 37 -4 0 -10
-6 -13 -14 -3 -9 -14 -12 -25 -9 -15 4 -21 -2 -25 -26 -10 -47 -47 -42 -103
14 -51 51 -70 56 -84 19z"/>
</g>
</svg>
